<svg width="33" height="32" viewBox="0 0 33 32" fill="none" xmlns="http://www.w3.org/2000/svg">
<g id="icon">
<path id="Vector" d="M23.2231 16.0407C26.7239 10.3457 22.548 4 16.4961 4C10.4441 4 6.27761 10.3457 9.77843 16.0407C11.2169 18.3786 12.027 19.8938 12.4855 20.9399V25.3333H20.488V21.0013C20.9419 19.9527 21.7566 18.4252 23.2231 16.0382V16.0407ZM19.3661 24.1496H13.6074V22.1163H19.3661V24.1496ZM19.2939 20.9326H13.7075C13.2536 19.7833 12.3854 18.1035 10.7211 15.3973C10.0391 14.2872 9.67135 13.1257 9.62712 11.9493C9.58755 10.8786 9.82963 9.80546 10.3231 8.84525C11.4869 6.58593 13.8518 5.18368 16.4961 5.18368C17.8345 5.18368 19.124 5.54223 20.2297 6.22248C21.2795 6.86835 22.1267 7.77698 22.6784 8.85016C23.1718 9.81037 23.4139 10.8811 23.3743 11.9518C23.3324 13.1281 22.9647 14.2872 22.2827 15.3973C20.6184 18.1035 19.7502 19.7833 19.2963 20.9326H19.2939Z" fill="black"/>
<path id="Vector_2" d="M19.3784 25.3373C19.3784 25.7574 19.1131 26.1659 18.6291 26.4868C18.08 26.8525 17.3028 27.0625 16.5 27.0625C15.6972 27.0625 14.92 26.8525 14.3708 26.4868C13.8892 26.1659 13.6216 25.7574 13.6216 25.3373V25.3334H12.5V25.3373C12.5 26.8077 14.2917 28 16.5 28C18.7082 28 20.5 26.8077 20.5 25.3373V25.3334H19.3784V25.3373Z" fill="black"/>
</g>
</svg>
