<svg width="32" height="32" viewBox="0 0 32 32" fill="none" xmlns="http://www.w3.org/2000/svg">
<g id="icon">
<path id="Vector" d="M22.7231 16.0407C26.2239 10.3457 22.048 4 15.9961 4C9.94414 4 5.77761 10.3457 9.27843 16.0407C10.7169 18.3786 11.527 19.8938 11.9855 20.9399V25.3333H19.988V21.0013C20.4419 19.9527 21.2566 18.4252 22.7231 16.0382V16.0407ZM18.8661 24.1496H13.1074V22.1163H18.8661V24.1496Z" fill="#FFFBA5"/>
<path id="Vector_2" d="M22.7231 16.0407C26.2239 10.3457 22.048 4 15.9961 4C9.94414 4 5.77761 10.3457 9.27843 16.0407C10.7169 18.3786 11.527 19.8938 11.9855 20.9399V25.3333H19.988V21.0013C20.4419 19.9527 21.2566 18.4252 22.7231 16.0382V16.0407ZM18.8661 24.1496H13.1074V22.1163H18.8661V24.1496ZM18.7939 20.9326H13.2075C12.7536 19.7833 11.8854 18.1035 10.2211 15.3973C9.53911 14.2872 9.17135 13.1257 9.12712 11.9493C9.08755 10.8786 9.32963 9.80546 9.82309 8.84525C10.9869 6.58593 13.3518 5.18368 15.9961 5.18368C17.3345 5.18368 18.624 5.54223 19.7297 6.22248C20.7795 6.86835 21.6267 7.77698 22.1784 8.85016C22.6718 9.81037 22.9139 10.8811 22.8743 11.9518C22.8324 13.1281 22.4647 14.2872 21.7827 15.3973C20.1184 18.1035 19.2502 19.7833 18.7963 20.9326H18.7939Z" fill="black"/>
<path id="Vector_3" d="M18.8784 25.3373C18.8784 25.7574 18.6131 26.1659 18.1291 26.4868C17.58 26.8525 16.8028 27.0625 16 27.0625C15.1972 27.0625 14.42 26.8525 13.8708 26.4868C13.3892 26.1659 13.1216 25.7574 13.1216 25.3373V25.3334H12V25.3373C12 26.8077 13.7917 28 16 28C18.2082 28 20 26.8077 20 25.3373V25.3334H18.8784V25.3373Z" fill="black"/>
</g>
</svg>
